<svg xmlns="http://www.w3.org/2000/svg" viewBox="0 0 2824.8 1289.07"><defs><style>.cls-1{fill:#0b0c0c;}.cls-2{fill:#ec8d9a;}.cls-3{fill:#fff;}</style></defs><g id="Capa_2" data-name="Capa 2"><g id="Capa_1-2" data-name="Capa 1"><path class="cls-1" d="M641.56,413.3c74.32-27.68,144.74-7.37,217.4,10.86-3.47-8.24-6.37-15.19-6.15-22.49.23-7.63,4.24-15.5,14.48-15.26,14.87.35,15.52-6.85,17.84-13.62,13.2-38.63,21.2-77.92,28-121.23-15.45,12.52-27.52,22.57-40,32.34-10.52,8.24-22.18,15.35-37,19.07-20.31,5.09-32.17,1.38-38.28-13.67-6.92-17-4.81-34.12,3.49-50.65,3.92-7.81,12.42-12.46,23.43-9.34,11.26,3.2,15.57,10,10.29,19.18-4.2,7.29-7.24,14.82-4,24.14,17.15-9.93,29.85-22.29,44.1-33.48,14.09-11.08,27.64-22.57,44.22-31.74,7.63-4.21,15.67-8.6,25.21-4.73,9.18,3.73,10.94,11.14,10,18.15-3.22,23.49-6.47,47-11,70.37-5.58,28.69-12.48,57.24-18.81,85.85l.56-.39c-6.83,12.58-12.93,25.43-20.72,37.67-6.22,9.76-16,17.1-32.51,15.51,54.61,43.39,58.6,96.88,52.18,150.93-6,50.54-35.9,95.28-74.11,136.76a111.41,111.41,0,0,1-34,24.57c-6.53,3.14-10.14,7.09-2.63,11.66,49.24,29.92,67.5,74.51,96.78,113.83,7.88,10.58,13.67,20.51,33.72,12.54,5.57-2.22,13.93-1.65,17,4.12,4.47,8.46,5.8,17.44.07,25.87-4.73,7-13.49,9.38-23.53,8C915.64,915.2,897.93,907,885.93,893c-20.62-24-41.31-48-57.26-74.11-5.47-8.94-11.52-17.69-17.51-26.45-13.53-19.75-30-36.34-64.77-33.11a19,19,0,0,1-3.9-.47c-33-4.12-33.32-4.1-30.26,20.92,4.38,35.8,8.53,71.62,20.93,106.59,5.73,16.14-4,24.44-26.57,24.27-34.36-.26-58.74-16.56-66.62-43.89-14.36-49.8-17.49-100.56-24.19-151-9.62-72.4-7.48-144.77-3.4-217.22.49-8.62,2.24-17.22-16.48-15.23-10.49,1.12-12.18-5.59-12.23-12.12-.17-21.05,13.09-36.59,37.05-49.37-19.34-4.59-21.14-15.12-20.67-27.63C602,342.82,611.73,292,617.71,240.93c2.07-17.68,4-35.38,5.32-53.11.7-9.31,5.89-15.67,18.67-15.51s18.33,6.95,17.84,16c-.75,14.09-2.07,28.17-3.39,45.4,13-13.45,25.34-23.41,42.31-29.48,29.5-10.55,58.24-4.53,71.24,17.67,17.79,30.33,15.22,60.77-9.74,88.67-12.79,14.29-32.24,19.76-55.46,16.09-18.58-2.95-27.64-12.56-31.5-25.48-2.88-9.63-.29-18.68,13.49-21.73,14-3.1,20.73,4.15,22.87,13.47s8.58,6.51,15.1,3.38c19.72-9.46,26.5-52.39,10.43-65.55-8-6.56-16.32-4.51-24.61-.36-11.92,6-19.24,14.85-26.19,23.8-21.64,27.82-29.54,58.75-35.47,90-4.16,21.93-7.52,43.94-11.23,65.92L633,414.09A8.23,8.23,0,0,0,641.56,413.3Zm62.66,214.35c0,28.57,0,57.13.06,85.7a37.1,37.1,0,0,0,1.33,8.76c2.53,10,8.48,11.25,18.2,4,12.62-9.4,26.35-18,36.21-29.29,59-67.25,85.63-139.32,64.63-220.14-5.82-22.4-21.21-32.27-47.68-36.9-6.41-1.12-13-1.69-19.53-2.37-38.85-4.09-48.42,2.06-50.49,30.68C703.12,521.25,696.47,574.32,704.22,627.65Z"/><path class="cls-1" d="M1291.13,508.94c0-39,.57-78-.32-116.92-.29-12.84,6-16.94,22.21-15.08,15.66,1.8,31.55,2.55,47.1,4.71,22.36,3.11,31,10.05,31.09,27.05.19,24.65-.81,49.33-2.45,73.95q-3.65,54.74-2.16,109.49c.57,21,3.23,23,29.54,18.41,26.8-4.7,53.89-4.95,80.85-3.78,18.06.78,23.4-5,23.58-16.77.65-42.51,8.33-84.51,16.71-126.45,6.59-33,10-66.6,29.21-97.55,5.42-8.72,7.63-19.79,26.44-17.11,21.41,3,35.87,13.16,36.11,26.68.32,18-9.11,34.63-13.77,51.93-26.15,97.24-34.75,195.33-27.59,294.24,3.89,53.66,7.82,107.34,13.18,160.93,2.53,25.38,2.2,28.59-17.49,30.29-30.16,2.61-52-8.46-53.93-28.76-2-21.14-1.78-42.38-2.81-63.57-2.8-57.18-5.79-114.35-8.59-171.52-1.1-22.42-10-27.91-39.33-25.11-24.32,2.32-47.52,8.19-71.45,11.65-15.21,2.2-21.12,9-20.45,19.83,4.27,69,2.33,138.12,9.86,207,2.1,19.16,1.73,38.39,5.17,57.55,3.7,20.6-17,33.67-45.57,30.17-27.42-3.36-45.4-17.44-49.53-38.54-10.25-52.39-8.66-105.26-11.39-157.95-1.07-20.7-1.47-41.45-.66-62.15.5-13-5.55-16.15-22.42-14.17-17.38,2-35.49,3.27-52.39-3.44-7.54-3-15-7.07-13.14-13.19,2-6.34,11.27-6.84,19.55-6.38,7.22.4,14.59,1,21.72.36,35.09-3.08,44.12-10.55,44.2-36.28.12-36.51,0-73,0-109.53Z"/><path class="cls-1" d="M.07,462.7c0-22.19.1-44.39-.07-66.58,0-6.36.11-12.85,11.74-11.8,43.11,3.9,87.07-3.19,129.81,6.69,41,9.49,78.76,22.65,107.51,47.3,47.88,41,34.74,97.57-28.68,124.57q-35.19,15-70.11,30.29c-5.57,2.44-13.6,5.35-12.68,10.12.85,4.43,8.7,6.34,15.38,7.91,39.15,9.22,76,21.93,109.5,40,43.42,23.4,72.75,53.73,85.27,92.9,4.3,13.43,4,26.59-3.41,39-30.12,50.49-63.11,99.71-114.22,140.8-11.89,9.56-24.85,17.9-40.93,22.77-21.23,6.41-42.62,11.93-62.9,20.56-25.13,10.7-56.55-1.94-61.36-24.59C45.53,851.32,18.18,760.77,12.3,668,8,599.58-.16,531.28.07,462.7ZM274.88,797.84c1-64.59-76.72-140.64-157.21-158.53-14.76-3.28-16.44,2.57-16,10.2.87,15.24,2.64,30.45,4.14,45.66,7.58,76.59,24.39,152.35,37,228.48,2.3,13.87,10.49,17,26.32,9.18,16.66-8.24,29.85-19.42,42-31.1C244.26,869.8,268.54,834.83,274.88,797.84ZM195.34,497.43c.4-37.07-30.92-68.8-73.18-74.15-24.48-3.1-32.08,1.24-32,19.35,0,13.28,1,26.56,1.9,39.83,2.16,33.41,4.35,66.82,6.88,100.22.32,4.1-1.52,10.11,5.74,11.48,6,1.14,10.64-3.15,14.86-6.19,14.72-10.58,29.94-20.83,43.76-32C183.48,539.54,196.05,520.41,195.34,497.43Z"/><path class="cls-1" d="M2508.61,767.13c3.21,6.65,3.55,12.68.24,18.11-27.4,45,24.34,89.27,67.64,102.94,3.63,1.15,7.44,2,11.14,3,48.46,13.72,71.87,7.24,96.18-27.41,21.43-30.56,30.71-63.92,35.6-97.69,9.05-62.43,10.67-124.93-6.88-186.9a137.7,137.7,0,0,0-5.82-15.62c-1.08-2.56-2.89-5-5.52-9.33-9.48,16.92-16.87,32.49-27.8,46.88-16.08,21.19-34.92,40.49-60.13,56.3-51.08,32-118.54,9.71-134.7-27.43-20.72-47.64-42-95.44-34.91-147.12,2.82-20.47-3.08-41.25,1.45-62,3-13.64,12.35-18.76,30-16.69,9.76,1.15,19.83,1.42,29.25,3.42,21.06,4.48,29.18,13.24,29.34,30.68.28,31.07,0,62.15.37,93.22.33,27.25,7,53.89,16.44,80.08,8,22.17,22.7,24.85,44.19,8.08,25.38-19.81,41.41-44.26,58.85-68,24.44-33.27,41.72-69,63.35-103.15,7.88-12.46,16.05-24.79,27.39-35.82,8.34-8.11,17.58-9.09,29.24-3.95,23.68,10.42,33.8,23.44,34.48,46.06,2.05,68,5.57,136.07,3.6,204.13-1.72,59.62-4.59,119.27-39.26,174.91-23.53,37.75-52.81,71.71-104.92,91-52,19.26-112.67,8.73-157.47-27.17-42.65-34.16-50.65-79.6-20.74-117.06C2493.68,775.13,2498.3,769.84,2508.61,767.13Z"/><path class="cls-1" d="M1703.18,624.52c-3.87-49.42-4.13-122.41-4-195.4,0-20.89,0-20.95,26.92-21,31.74-.05,63.49.29,95.23,0,34.58-.35,64.63,8.75,85.76,28.34C1940.05,467,1973,498,1987.05,537.13a21.57,21.57,0,0,0,2.73,5.53c44.59,61.17,36,125.51,20,190.15-15.35,61.89-59,112.3-119.49,154.37-37.27,25.9-85.54,38.17-133.42,49.65-16.23,3.89-23.51-4.23-27.56-13.56-7.12-16.4-12.22-33.3-13.18-50.56C1712,797.82,1708.26,722.92,1703.18,624.52Zm271.15,26.27c6.59-70.45-36.82-133.87-91.51-194.27-12.09-13.36-28-23.57-51-25.42-19.65-1.58-27,2.76-27.54,17.55-.93,26.12-2.73,52.28-1.87,78.38,3.19,97.06,13.88,193.93,14,291.09,0,20.2,1.81,40.39,2.47,60.58.28,8.42,4.2,11,14.25,6,12.09-6,25.08-11.3,34.52-19.68C1935.54,804.69,1978.16,737.1,1974.33,650.79Z"/><path class="cls-1" d="M2377,875.5c0,7.89-.63,15.8.12,23.64,1.89,19.8-3,26.83-23.85,32.44-21.33,5.74-44.18.83-56.59-12.27-8.27-8.73-11.35-18.85-12.52-29.19q-8.64-76.62-16.69-153.27c-2.05-19.37-6-21.92-32.75-26.62-38.52-6.77-76.21-.57-114.15,2.37-10.8.84-15.7,5.68-16.3,13.95-2.21,30.52-5.32,61-7.29,91.51-.62,9.64-3.4,17.61-16.05,21.72-15.57,5.06-28.76-1.89-26.66-14.32,12-71.32,25.23-142.54,36.32-213.94,8.91-57.34,27.12-113.27,42.36-169.67,7.17-26.56,23.88-49.85,44.87-71.62,1.54-1.6,2.93-3.56,5.07-4.5,27.42-12.09,56.58-6.09,84.61-2.82,19.4,2.26,29,14.64,32.07,28.81,9.19,42.76,18.31,85.53,26.93,128.35,9.9,49.16,23.58,97.91,29.5,147.49,5.45,45.64,10.12,91.35,14.66,137.05,2.34,23.6,3.66,47.25,5.44,70.88ZM2260.58,674.09c-1-6-2.89-17.19-4.77-28.43-12.67-75.72-31.1-150.67-53.78-225-1.78-5.86-2.43-14.65-12.86-14.39a20.54,20.54,0,0,0-18.72,13.49c-5.95,16.08-14.22,31.86-17.8,48.22-15.1,68.9-34.13,137.38-40.63,207.25-1.66,18,.6,20.86,23.67,17.21,35.92-5.68,71.78-8.25,107.95-1.84C2256.8,692.88,2262.54,689.32,2260.58,674.09Z"/><path class="cls-1" d="M924.68,377.05c8.15-6.45,17.53-6.4,28-3.44,27.21,7.71,54.55,14.31,84.59,12,12.57-.95,21.47-3.31,25.42-12.88,4.24-10.3,14.09-13.32,27.82-11.41,14.26,2,28.73,3.26,42.27,7.44,21.53,6.63,44.18,4.85,66.55,5,20.72.12,40.83,2.28,59.34,9.6,12.9,5.11,15.72,11.6,3,19.1-8.26,4.87-16.42,10-26.64,12.49-9.53,2.32-19.7,2.26-24.67-4.86-9.81-14-25.95-11.71-41.33-9.75s-17,12.86-19.59,21.73c-18.41,63.13-29.48,127-36.79,191.39-8.92,78.47-4.29,156.66,7.87,234.69,2.81,18,5.24,36.62,13.07,53.61,12.76,27.71-6,43-48.52,36.47-23.37-3.6-39.51-15.22-44.16-33.85-23-92.08-28.54-184.86-21.39-278.28,5.12-67,16.07-133.44,28.79-199.78,1.93-10.1-1.85-14.74-16.33-14.55-31.89.41-60.92-7.12-88.19-19-8.75-3.8-16.42-8.17-18.5-16.15Z"/><path class="cls-1" d="M449,479.31c15,1.93,32.08,3.62,48.81,6.41,17.78,3,25.63,12,21.61,25.28-20,65.65-28.23,132.35-31.26,199.41-1.63,36,2.29,71.9,6.22,107.76,3.17,29-2.31,37.23-27.35,39-31.79,2.22-60.73-14.79-61.13-38-.85-49.8-5.78-99.54-2.72-149.43,3.47-56.7,8.73-113.21,23-169C428.35,492.13,424.55,478,449,479.31Z"/><path class="cls-1" d="M1667.49,1261.35c1,6.91-.22,13.39-10.88,15.05-9.75,1.51-13.24-4-16.91-9.76-13.61-21.21-38.62-34.64-62-49-31.66-19.4-64-38.19-90.15-62.06-45.19-41.16-54.81-87.47-35.09-137.47,18.68-47.38,74.16-70.49,142.93-60.63,22.1,3.17,46,6.58,61.84,18.06,19.67,14.22,35.17,11.22,57.56,4.47,60.61-18.27,114.33-3.87,148.39,36.72-.4,2.4.71,4.21,3.69,5.31l-.11-.22c6,25.39,7,50.55-2.75,75.75-14.49,37.37-51.4,60.85-90.55,83C1744,1197.21,1714,1213.34,1688,1233,1677.7,1240.87,1665.94,1248.54,1667.49,1261.35ZM1493.31,1125.4q2.2,2.88,4.4,5.78c5.92,9.53,16.09,16.6,25.49,24.06,27.7,22,60.78,39.35,91.24,59,11,7.07,21,14.91,31.53,22.41,9.83-7.67,19.36-15.56,29.58-22.92,9-6.49,18.51-12.65,28.31-18.47,27.88-16.56,56.41-32.51,84-49.35q59.84-36.58,56.43-94.64c-2-36.12-31.2-57.49-80.83-58-24.88-.35-47.77,3.7-66.61,16.73-10.24,3.34-15.69,10-21.33,16.69s-6.16,20.59-23.21,13.86c-16.48-6.5-3.86-16.09.15-24.27a7.26,7.26,0,0,1,2-2.54c10.61-8.23,4.72-13.85-5.38-18.68-23.69-11.34-49-19-77.76-18.37-35.29-3-65.38,5.13-81.87,28.84-27.84,40-28.84,80.81,4.11,120.31Z"/><path class="cls-1" d="M168.12,249.62c2.31-23.61,4.28-47.24,7.16-70.8,1-8.14-2-10.35-12.8-8.87-16.87,2.3-33.93,4-51,5.22-9.56.66-14.13,2.92-14.44,10.65-1.4,34.1.51,68,9,101.59a67.52,67.52,0,0,1,2.2,10.18c.71,7.6-2.61,13.93-13.11,16.21-11.5,2.49-17.38-3.43-21.09-10-10.94-19.45-11.82-40.31-13.27-60.91-1.22-17.22-.4-34.52-.46-51.78,0-7.29,2-14.75-4.68-21.31a6.4,6.4,0,0,1-1-8.47c17.2-26.82,8.94-55.93,13.43-83.89,1.57-9.76,1-19.71,1.48-29.57.49-9,5.57-15.61,18.66-15.67,14.57-.06,19.33,7.56,18.73,16.9-1.86,29.06-3.72,58.13-6.89,87.12-1.19,10.86,3.09,14.3,16.94,11.77,5.12-.94,10.34-1.65,15.57-2.17,47.6-4.75,47.13-4.76,51-39.61,3.31-30,8.18-59.83,8.31-90,0-9.47,5.44-16.62,19.83-16.19C226.51.46,230,8.47,229.08,17.66c-3.67,37.86-7.27,75.72-12,113.5-1,8.09-.33,11.8,11.81,11.82,6.38,0,13.07,1.71,19.06,3.62,9,2.88,16.67,7.72,13,15.85s-12,13-24.52,11.2a81,81,0,0,1-13.24-3c-8.08-2.58-10.61,0-11.25,5.68a933.45,933.45,0,0,0-5.63,115.27c.06,5.25,4,9.22,6.48,13.73,5,9.27-2.47,23.36-13.55,26.33C186.82,335,175.73,329,171.7,316,164.91,294.05,168.58,271.77,168.12,249.62Z"/><path class="cls-1" d="M1989.25,443.83c.69,6.47-1.09,12.17-10.86,13.64s-13.52-3.49-17.11-9.37c-11.64-19-33.33-31.56-54.16-44.43-31.55-19.49-64.13-38.05-91.57-61-44.5-37.22-59.58-80.43-46.92-128.93,15.65-59.92,78.33-88.55,159.44-73.2,25.09,4.75,49.51,11.47,67.84,25.77,7.3,5.7,11.74,4.69,19.54,1.47,30.48-12.58,62.8-17.05,97.36-11.2s59.27,20.35,73,44.91c9.69,20.57,8.67,41.61,4.32,62.67-8.71,42.14-45.61,69.67-88.53,93.94-31.52,17.82-63.91,34.88-91.73,56C1999.08,422.32,1986.73,430.32,1989.25,443.83Zm95.92-268.75c-25.39-1.47-48,3.68-67.45,16-13.32,5.75-20.07,15.15-25.68,25.3-3.29,5.94-9.8,8.05-17.73,5.86-8.44-2.34-9.73-7.71-7.18-13.4,2.08-4.62,4.18-9.71,8.33-13.23,10.75-9.12,4.93-14.71-5.84-19.84-25.51-12.16-53-19.4-83.69-18.22-35.23-1.49-63.53,9-77.84,32.52-25.16,41.39-25.43,82.85,11,121.8,8.57,13,22.79,22.66,36.36,32.59,35.76,26.15,78.65,46.19,113.44,74.25,19.51-19.8,43.77-34.92,68.55-49.62,25.81-15.32,52.36-30,77.43-45.95,39-24.81,54.38-57.08,50.5-94.9C2161.9,194.59,2131.45,174.26,2085.17,175.08Z"/><path class="cls-1" d="M2763.66,1147.63c-8.67,12.95-15.54,23.63-26.57,32.29-14.34,11.24-28.89,11.38-42.13-.62-17.2-15.6-23.2-34.17-20.38-54,2.77-19.42,6.91-38.73,10.6-58.9-16,.81-31.73,1.91-47.46,2.28-11.63.28-7.95,6-7.31,10.37,3.41,23.32,1.89,46.3-8.9,68.53-7.69,15.85-20.31,28.55-42.58,34.72-35.21,9.75-57.32-.37-60.55-28.2-3.43-29.52,3.26-57.85,18.58-85.16,4.35-7.74,9-14.28,2.42-24.36-9.64-14.83,10.8-30.76,33.57-28.07,11.86,1.41,24.37,4.32,31.26,11.6,11.4,12.06,26.39,12.53,43.29,11.45,10.52-.68,21.15-.36,31.73-.63,15.15-.38,24.23,3.92,22.85,16.27-.26,2.29-2.67,4.37,2.65,5.47,19.94,4.15,16.42,15.43,13.95,26.36-4.57,20.23-13.31,40.26-5.13,61.16,7.29,1.2,6.9-3.78,8.43-6.32,10.85-17.9,21.07-36,31.86-53.95a70.46,70.46,0,0,1,11.72-15.31c5.32-5,12.22-9.39,22.07-7.12,10.78,2.49,13.08,9,12.9,16.39-.38,16.27-.92,32.53-1.28,48.8-.25,11.38,4.22,21.39,16,29.08,9.07,5.91,13.33,13.31,5.29,20.66-9.27,8.48-21.6,5.9-32.17.84C2773.49,1174.14,2769.67,1161.66,2763.66,1147.63Zm-209.76-10.12c1,6.82-2.9,16.84,6.51,18.48s19.79-4.45,25-12a58.67,58.67,0,0,0,7.87-14.92c5.84-18.13,1.05-36.09-2.62-54-.7-3.39-1.15-7.16-7.15-7.69-6.31-.56-7.13,3.74-9,6.55C2561.2,1094,2555.71,1115.58,2553.9,1137.51Z"/><path class="cls-1" d="M473.59,230.25c13.75-13.25,28.15-23.64,48.07-28.68,22.74-5.75,43.54-.85,57.45,13.66,24.54,25.61,20,77-9.11,99.65-15.57,12.15-34.72,16.18-56.06,10.81-16.58-4.17-24.81-14.05-26.61-26.91-1.3-9.21,1.36-17.34,15-19.55,13.4-2.18,20,4.89,21.51,13.23,1.67,9.34,6.93,7.58,14.19,4.29,11.12-5.05,15.68-13.43,17.76-22.15,2.78-11.66,3.54-23.69-.75-35.26-5.1-13.73-17.73-16.56-32.71-7.7-11.63,6.86-19,16.26-26,25.79-22.15,30-28.81,63.06-34.76,96.27-3,16.6-6.15,33.19-8.58,49.83-1.43,9.74-7.75,16.77-20.77,16.16-13.38-.64-18.37-9.12-17.67-18.29,2.42-31.5,4.46-63,8.56-94.42,5.06-38.75,11.77-77.39,13.94-116.31.56-10,4-18.44,19.19-18.29,15.86.15,17.86,9.2,17.5,19C473.25,203.63,473.59,215.92,473.59,230.25Z"/><path class="cls-1" d="M2041.23,1111.76c0,7.89.21,15.78,0,23.67-.58,17.92,8.43,31.52,30.85,39.42a42.36,42.36,0,0,1,10,4.71c5.62,3.92,8.82,8.87,5.88,14.64-3.17,6.21-9.64,8.65-18.69,8.67-26,.07-51.78-16.33-59.2-39.14-9.62-29.55-9.32-59.59-6.46-89.69,3.32-34.9,8.15-69.67,16.88-104.07,1.74-6.85-1.19-9-9.89-8.52-7.91.41-15.87.25-23.77.66-13,.66-22.8-2.73-24-13s9.58-13.17,20.54-14.45a150.5,150.5,0,0,1,25.62-1.23c13.67.75,22.48-.94,22.41-13.44,0-6.68,3.36-13.51,6.17-20,3.07-7.12,10.51-10,20.25-8.46,10.73,1.71,15.56,7.41,14.34,15.19s-7.91,17.82-1.73,22.61c7.63,5.91,22.37,2.29,34,2.8,23.07,1,46.24,1.06,68.46,6.73,11.81,3,23.82,6.81,19.69,18.29-4.27,11.86-17.09,9.84-29.22,7.58-30.49-5.68-61.63-4.47-92.65-4.9-8.52-.12-9.59,3-10.11,8s-2.19,9.72-3,14.6C2050.63,1025.39,2041.67,1068.28,2041.23,1111.76Z"/><path class="cls-1" d="M2448.72,1115.3c-13.53,10.77-26.89,21.67-40.65,32.26a84.44,84.44,0,0,1-25.92,13.36c-23.77,7.62-38.15,2.43-44.28-16.15-5.2-15.78-2.83-31.32,4.63-46.39,4.14-8.35,12.43-13.52,24.52-9.77,11.37,3.52,14.66,10.57,9.31,19.51-4.25,7.1-7.84,14.46-3.08,24.72,17.6-14,33.81-27.31,50.64-40.16,12-9.15,24.51-17.92,37.37-26.38,6.38-4.19,14.11-8.3,23.28-5.13,10.52,3.64,12.61,11.6,12,18.9-1.25,14.21-4.21,28.35-6.66,42.49-7,40.47-12.56,81.14-27.56,120.57-5.21,13.69-11,27.37-23.87,38.47-7.08,6.1-16.12,9.61-26.36,6-14.34-5-17.47-15.08-17.74-26-.2-8.47,4.25-15.86,15.39-16.3,12.61-.49,14.37-5.93,16.61-12.56a631.08,631.08,0,0,0,26.79-114.64c-.12-1.63-.25-3.27-.38-4.91Z"/><path class="cls-1" d="M2096,1137.18c0-25,8-48.73,21.33-71.45,3.76-6.39,7-11.53,1.36-18.92-5.24-6.86-4.57-15.49,3.44-22.08,8.55-7,19.44-10.13,32.13-7.88,13.1,2.32,25.54,6.54,33.55,14.6,7.33,7.38,15.85,8.88,27.05,8.32,15.14-.74,30.35-.6,45.53-.86,11.61-.19,19.18,3.57,20.39,12.48s-7.23,12.6-16.59,13.89c-13.57,1.86-27.52,3.25-41.26,3.09-12.41-.15-15.93,2.53-14.26,11.72a115.56,115.56,0,0,1-5.06,60c-9.5,26.82-32.6,43.06-62.53,44.92-25.42,1.58-38.73-5.63-43-24.3C2096.3,1153,2096.63,1145,2096,1137.18Zm77.62-36.58c-.92-5.22-2.58-14.94-4.36-24.65-.6-3.3,0-7.26-6-8.33-7.55-1.36-8.43,3.61-10.5,6.82-13.35,20.64-19.81,42.52-19.9,65.39,0,5.74-2.53,14.57,5,16.11,9,1.85,18.38-3.48,24.37-9.78C2174.05,1133.77,2174.17,1119.5,2173.62,1100.6Z"/><path class="cls-1" d="M345.67,280.68c-13.71,7.09-24.35,13.69-37.83,16.94-20.71,5-37.54-.58-40.29-16.06-6-33.79,2.92-64.95,37.59-89.32,21.39-15,53.91-17.73,77.3-7.83,9,3.81,14,9.16,11.4,17-2.43,7.4-10.09,9.61-19.51,9.91-14.88.47-30.41-9.07-44.66,2.63-18,14.8-27,32.13-30.46,53.28,12.24-3.21,19.36-9.4,27.22-14.69,11.27-7.58,21.33-16.28,34.81-21.79,16.23-6.65,29.37-.95,29.25,12.75-.05,6.37-1.8,12.73-2.62,19.1-1.68,13.1-3.84,25.66,13.39,35.6,8.64,5,9.37,14.2,1.63,21.42-7.56,7-17.43,8.17-28.38,4.12-14.47-5.37-19.35-15.64-23.78-26C348.54,292.63,347.57,287.24,345.67,280.68Z"/><path class="cls-2" d="M1989.25,443.83c-2.52-13.51,9.83-21.51,20.61-29.7,27.82-21.15,60.21-38.21,91.73-56,42.92-24.27,79.82-51.8,88.53-93.94,4.35-21.06,5.37-42.1-4.32-62.67,20.78,12.14,20.92,30.19,20.8,46.8-.31,42-25.23,75.28-69.38,101.35-39.73,23.47-82.59,44.17-116.88,72.56-9.94,8.24-17.77,17-19.65,28.26C1993.52,451.26,1994.71,444.38,1989.25,443.83Z"/><path class="cls-2" d="M1667.49,1261.35c-1.55-12.81,10.21-20.48,20.55-28.32,26-19.69,56-35.82,85.37-52.46,39.15-22.15,76.06-45.63,90.55-83,9.77-25.2,8.79-50.36,2.75-75.75,18.4,13.33,18.29,30.93,18.06,47.85-.65,46.28-33.34,79.23-81.06,105.93-34.79,19.47-70.33,38.35-100.91,61.67-12.12,9.25-22.87,19.2-23.53,34.32Z"/><path class="cls-2" d="M1866.82,1022c-3-1.1-4.09-2.91-3.69-5.31C1865.9,1017.91,1868.14,1019.29,1866.82,1022Z"/><path class="cls-3" d="M641.56,413.3a8.23,8.23,0,0,1-8.52.79l4.35-3.92Z"/><path class="cls-2" d="M1763.44,993.28c49.62.46,78.78,21.83,80.82,58q3.3,58.08-56.43,94.64c-27.56,16.84-56.09,32.79-84,49.35-9.8,5.82-19.3,12-28.31,18.47-10.22,7.36-19.75,15.25-29.58,22.92-10.48-7.5-20.55-15.34-31.53-22.41-30.46-19.61-63.54-37-91.24-59-9.4-7.46-19.57-14.53-25.49-24.06q-2.19-2.9-4.4-5.78l.2.45c-9.18-25.29-14.44-50.5-8.53-77.06,9.07-40.73,40-67.77,86.29-72.09,28.79-.63,54.07,7,77.76,18.37,10.1,4.83,16,10.45,5.38,18.68a7.26,7.26,0,0,0-2,2.54c-4,8.18-16.63,17.77-.15,24.27,17,6.73,17.57-7.21,23.21-13.86s11.09-13.35,21.33-16.68c-.25,4-.48,7.93-.72,11.9-.27.93-3.44,1.17-1.17,2.71l1-2.83C1715.11,1007.92,1737.69,998.52,1763.44,993.28Z"/><path class="cls-3" d="M1571.27,976.7c-46.34,4.32-77.22,31.36-86.29,72.09-5.91,26.56-.65,51.77,8.53,77.06-33-39.5-32-80.27-4.11-120.31C1505.89,981.83,1536,973.72,1571.27,976.7Z"/><path class="cls-3" d="M1696.1,1021.92c.24-4,.47-7.93.72-11.9,18.84-13,41.73-17.09,66.61-16.74-25.74,5.24-48.32,14.64-67.51,28.52Z"/><path class="cls-3" d="M1493.31,1125.4q2.2,2.88,4.4,5.78Q1495.52,1128.28,1493.31,1125.4Z"/><path class="cls-2" d="M1885.93,157.59c30.73-1.18,58.18,6.06,83.69,18.22,10.77,5.13,16.59,10.72,5.84,19.84-4.15,3.52-6.25,8.61-8.33,13.23-2.55,5.69-1.26,11.06,7.18,13.4,7.93,2.19,14.44.08,17.73-5.86,5.61-10.15,12.36-19.55,25.67-25.29,0,3.53,0,7.06.07,10.59l-2.6,1.92,1.79.69c.17-.93.35-1.86.52-2.79,20.8-11.33,41.62-22.62,67.68-26.46,46.28-.82,76.73,19.51,80.19,53.2,3.88,37.82-11.53,70.09-50.5,94.9-25.07,16-51.62,30.63-77.43,45.95-24.78,14.7-49,29.82-68.55,49.62-34.79-28.06-77.68-48.1-113.44-74.25-13.57-9.93-27.79-19.54-36.36-32.6-5.88-12.95-12.64-25.8-14.25-39.52C1799.67,228.44,1811.6,173.25,1885.93,157.59Z"/><path class="cls-3" d="M1885.93,157.59c-74.33,15.66-86.26,70.85-81.1,114.79,1.61,13.72,8.37,26.57,14.25,39.52-36.42-38.94-36.15-80.4-11-121.79C1822.4,166.57,1850.7,156.1,1885.93,157.59Z"/><path class="cls-3" d="M2085.17,175.08c-26.06,3.84-46.88,15.13-67.68,26.46l.29.18c0-3.53,0-7.06-.07-10.59C2037.21,178.76,2059.78,173.61,2085.17,175.08Z"/><path class="cls-3" d="M2448.72,1115.3l4-2.08c.13,1.64.26,3.28.38,4.91Z"/><path class="cls-3" d="M1695.92,1021.8l-1,2.83c-2.27-1.54.9-1.78,1.17-2.71Z"/><path class="cls-3" d="M2017.49,201.54c-.17.93-.35,1.86-.52,2.79l-1.79-.69,2.6-1.92Z"/></g></g></svg>