<svg xmlns="http://www.w3.org/2000/svg" viewBox="0 0 203.12 192.84"><defs><style>.cls-1,.cls-2{fill:none;stroke:#1d1d1b;stroke-linecap:round;stroke-linejoin:round;stroke-width:4px;}.cls-2{stroke-dasharray:12.14 12.14;}</style></defs><g id="Capa_2" data-name="Capa 2"><g id="Capa_1-2" data-name="Capa 1"><path class="cls-1" d="M73.32,2a54.56,54.56,0,0,0-4.57,3.89"/><path class="cls-2" d="M60.92,15.15a56.32,56.32,0,0,0-8.91,22c-1.6,9.37-.34,20,6.59,26.56,5.09,4.79,12.35,6.5,19.32,7.05A77,77,0,0,0,139.31,47c4.71-5,8.94-11.48,8.05-18.32-1-7.5-8.54-13.2-16.09-13s-14.46,5.54-17.5,12.46-2.52,15.08.33,22.07c3,7.4,9,14,16.76,15.9s16.07-.92,23.93.61c10.39,2,17.71,11.08,24.1,19.52,2.43,3.21,4.94,6.58,5.69,10.54,3.51,18.31-19.85,31.85-35.09,31.12a37.31,37.31,0,0,1-24-10.37,10.46,10.46,0,0,1-3.1-4.58c-1.62-6.09,5.71-11.09,10.1-13.85A78.17,78.17,0,0,1,169,87.31c7.72-.49,16.1.42,21.93,5.49,24.14,21,.46,63.83-20,77.23-8.51,5.56-18.52,9.27-28.68,8.87-13.94-.56-26.33-8.58-37.94-16.33-11.22-7.49-22.52-15-32-24.66a75.89,75.89,0,0,1-14.67-20.38c-3.32-7-3.21-16.79-11.92-19.32C34.48,94.94,9.53,102,3.66,113c-2.18,4.08-2,9.07-.75,13.53,5,18.18,23.43,30.59,36.94,42.23a15.8,15.8,0,0,1,5.42,10"/><path class="cls-1" d="M45.48,184.88c-.11,2-.36,4-.65,6"/></g></g></svg>